<?xml version="1.0" standalone="no"?>
<!DOCTYPE svg PUBLIC "-//W3C//DTD SVG 20010904//EN"
 "http://www.w3.org/TR/2001/REC-SVG-20010904/DTD/svg10.dtd">
<svg version="1.0" xmlns="http://www.w3.org/2000/svg"
 width="600.000000pt" height="172.000000pt" viewBox="0 0 600.000000 172.000000"
 preserveAspectRatio="xMidYMid meet">
<metadata>
Created by potrace 1.15, written by Peter Selinger 2001-2017
</metadata>
<g transform="translate(0.000000,172.000000) scale(0.100000,-0.100000)"
fill="#000000" stroke="none">
<path d="M2860 885 l0 -395 50 0 50 0 1 88 1 87 53 48 53 48 35 -48 c20 -26
51 -68 70 -93 18 -25 44 -64 57 -87 23 -42 25 -43 77 -43 29 0 53 3 53 7 0 4
-37 57 -83 117 -90 121 -137 190 -137 205 0 5 47 59 105 119 58 60 105 112
105 116 0 3 -21 6 -47 6 -47 0 -47 0 -192 -142 l-146 -143 -3 253 -2 252 -50
0 -50 0 0 -395z"/>
<path d="M920 875 l0 -385 50 0 50 0 0 175 0 175 215 0 215 0 0 -175 0 -175
45 0 45 0 0 385 0 385 -45 0 -45 0 0 -170 0 -170 -215 0 -215 0 0 170 0 170
-50 0 -50 0 0 -385z"/>
<path d="M3450 875 l0 -385 265 0 265 0 0 40 0 40 -220 0 -220 0 0 135 0 135
185 0 185 0 0 40 0 40 -185 0 -185 0 0 130 0 130 215 0 215 0 0 40 0 40 -260
0 -260 0 0 -385z"/>
<path d="M1795 1056 c-47 -15 -115 -54 -115 -67 0 -16 23 -59 32 -59 5 0 29
11 52 25 24 14 68 30 99 36 50 10 60 9 101 -10 50 -25 86 -83 86 -139 0 -30
-1 -31 -32 -24 -18 4 -78 7 -133 7 -108 0 -155 -16 -202 -67 -53 -57 -51 -153
4 -219 36 -43 80 -59 156 -59 73 0 136 19 184 56 32 24 33 24 33 5 0 -30 35
-61 70 -61 29 0 30 2 30 44 0 28 -5 46 -14 49 -11 5 -15 43 -18 189 -3 170 -5
186 -26 220 -35 56 -108 88 -196 87 -39 0 -89 -6 -111 -13z m216 -308 c38 -11
39 -12 39 -58 0 -54 -26 -86 -100 -119 -81 -37 -162 -20 -200 41 -32 52 -10
105 55 134 37 16 155 18 206 2z"/>
<path d="M2405 1047 c-109 -53 -167 -148 -167 -272 0 -89 29 -161 87 -217 59
-57 98 -72 195 -76 78 -3 90 -1 140 25 52 28 117 100 102 114 -4 4 -21 11 -39
17 -30 10 -35 8 -66 -23 -52 -52 -128 -67 -195 -39 -141 59 -177 240 -68 348
78 78 182 82 255 9 30 -30 39 -34 68 -28 46 8 51 28 18 70 -49 65 -99 88 -195
92 -74 4 -91 1 -135 -20z"/>
<path d="M4742 1044 c-145 -72 -204 -250 -133 -399 54 -113 135 -164 262 -165
88 0 158 29 209 86 39 45 38 60 -6 68 -30 6 -40 3 -71 -25 -68 -59 -131 -73
-201 -44 -47 20 -79 50 -103 97 -36 71 -46 68 217 68 l237 0 -5 68 c-8 114
-71 207 -172 253 -64 29 -169 26 -234 -7z m201 -70 c57 -29 89 -70 111 -141
l7 -23 -192 0 -191 0 6 33 c9 45 55 106 96 128 43 23 120 25 163 3z"/>
<path d="M3990 1052 c0 -10 93 -225 179 -415 l63 -138 -22 -60 c-30 -80 -54
-109 -91 -109 -28 0 -29 -2 -29 -45 0 -42 2 -45 28 -45 47 0 102 20 117 44 14
20 61 134 246 591 38 93 69 173 69 178 0 4 -21 7 -46 5 l-45 -3 -53 -135 c-29
-74 -70 -179 -91 -233 -43 -111 -40 -112 -83 13 -10 30 -48 124 -83 207 l-64
153 -47 0 c-27 0 -48 -4 -48 -8z"/>
</g>
</svg>
